<?xml version="1.0" encoding="UTF-8" standalone="no"?>
<!DOCTYPE svg PUBLIC "-//W3C//DTD SVG 1.1//EN"
 "http://www.w3.org/Graphics/SVG/1.1/DTD/svg11.dtd">
<!-- Generated by graphviz version 2.49.3 (20211027.1534)
 -->
<!-- Title: workflow Pages: 1 -->
<svg width="622pt" height="128pt"
 viewBox="0.00 0.00 622.00 128.00" xmlns="http://www.w3.org/2000/svg" xmlns:xlink="http://www.w3.org/1999/xlink">
<g id="graph0" class="graph" transform="scale(1 1) rotate(0) translate(4 124)">
<title>workflow</title>
<polygon fill="white" stroke="transparent" points="-4,4 -4,-124 618,-124 618,4 -4,4"/>
<!-- place_0e7766b460fd2a39a2fd81d4a3a636b033b52be4 -->
<g id="node1" class="node">
<title>place_0e7766b460fd2a39a2fd81d4a3a636b033b52be4</title>
<ellipse fill="lightblue" stroke="#333333" cx="36" cy="-36" rx="36" ry="36"/>
<text text-anchor="middle" x="36" y="-33.8" font-family="Arial" font-size="9.00">draft</text>
</g>
<!-- place_6949816d412abddf3f5d13e07d003ae5823f1387 -->
<g id="node2" class="node">
<title>place_6949816d412abddf3f5d13e07d003ae5823f1387</title>
<ellipse fill="none" stroke="#333333" cx="177" cy="-36" rx="36" ry="36"/>
<text text-anchor="middle" x="177" y="-33.8" font-family="Arial" font-size="9.00">unpayed</text>
</g>
<!-- place_0e7766b460fd2a39a2fd81d4a3a636b033b52be4&#45;&gt;place_6949816d412abddf3f5d13e07d003ae5823f1387 -->
<g id="edge1" class="edge">
<title>place_0e7766b460fd2a39a2fd81d4a3a636b033b52be4&#45;&gt;place_6949816d412abddf3f5d13e07d003ae5823f1387</title>
<path fill="none" stroke="#333333" d="M72.08,-36C91.5,-36 115.73,-36 135.9,-36"/>
<polygon fill="#333333" stroke="#333333" points="135.94,-37.75 140.94,-36 135.94,-34.25 135.94,-37.75"/>
<text text-anchor="middle" x="106.5" y="-38.8" font-family="Arial" font-size="9.00">request</text>
</g>
<!-- place_e22586930a5b2f196cd9070b9a4af5c47c1380fa -->
<g id="node3" class="node">
<title>place_e22586930a5b2f196cd9070b9a4af5c47c1380fa</title>
<ellipse fill="none" stroke="#333333" cx="301" cy="-36" rx="36" ry="36"/>
<text text-anchor="middle" x="301" y="-33.8" font-family="Arial" font-size="9.00">pending</text>
</g>
<!-- place_6949816d412abddf3f5d13e07d003ae5823f1387&#45;&gt;place_e22586930a5b2f196cd9070b9a4af5c47c1380fa -->
<g id="edge2" class="edge">
<title>place_6949816d412abddf3f5d13e07d003ae5823f1387&#45;&gt;place_e22586930a5b2f196cd9070b9a4af5c47c1380fa</title>
<path fill="none" stroke="#333333" d="M213.29,-36C227.83,-36 244.76,-36 259.78,-36"/>
<polygon fill="#333333" stroke="#333333" points="259.79,-37.75 264.79,-36 259.79,-34.25 259.79,-37.75"/>
<text text-anchor="middle" x="239" y="-38.8" font-family="Arial" font-size="9.00">pay</text>
</g>
<!-- place_d35ce8acb0d0ca09297349a4e2d4240c2819c523 -->
<g id="node4" class="node">
<title>place_d35ce8acb0d0ca09297349a4e2d4240c2819c523</title>
<ellipse fill="none" stroke="#333333" cx="442" cy="-84" rx="36" ry="36"/>
<text text-anchor="middle" x="442" y="-81.8" font-family="Arial" font-size="9.00">confirmed</text>
</g>
<!-- place_e22586930a5b2f196cd9070b9a4af5c47c1380fa&#45;&gt;place_d35ce8acb0d0ca09297349a4e2d4240c2819c523 -->
<g id="edge3" class="edge">
<title>place_e22586930a5b2f196cd9070b9a4af5c47c1380fa&#45;&gt;place_d35ce8acb0d0ca09297349a4e2d4240c2819c523</title>
<path fill="none" stroke="#333333" d="M335.29,-47.5C355.52,-54.48 381.42,-63.43 402.52,-70.71"/>
<polygon fill="#333333" stroke="#333333" points="402.2,-72.45 407.5,-72.43 403.34,-69.14 402.2,-72.45"/>
<text text-anchor="middle" x="371.5" y="-66.8" font-family="Arial" font-size="9.00">confirm</text>
</g>
<!-- place_140e7351379dcf91c8a2461ed5cf53e1b9d1414b -->
<g id="node5" class="node">
<title>place_140e7351379dcf91c8a2461ed5cf53e1b9d1414b</title>
<ellipse fill="none" stroke="#333333" cx="578" cy="-36" rx="36" ry="36"/>
<text text-anchor="middle" x="578" y="-33.8" font-family="Arial" font-size="9.00">canceled</text>
</g>
<!-- place_e22586930a5b2f196cd9070b9a4af5c47c1380fa&#45;&gt;place_140e7351379dcf91c8a2461ed5cf53e1b9d1414b -->
<g id="edge4" class="edge">
<title>place_e22586930a5b2f196cd9070b9a4af5c47c1380fa&#45;&gt;place_140e7351379dcf91c8a2461ed5cf53e1b9d1414b</title>
<path fill="none" stroke="#333333" d="M337.11,-33.05C357.26,-31.5 383.03,-29.77 406,-29 437.98,-27.92 446.02,-27.87 478,-29 497.19,-29.68 518.44,-31.09 536.32,-32.47"/>
<polygon fill="#333333" stroke="#333333" points="536.63,-34.25 541.75,-32.9 536.9,-30.76 536.63,-34.25"/>
<text text-anchor="middle" x="442" y="-31.8" font-family="Arial" font-size="9.00">cancel</text>
</g>
<!-- place_d35ce8acb0d0ca09297349a4e2d4240c2819c523&#45;&gt;place_140e7351379dcf91c8a2461ed5cf53e1b9d1414b -->
<g id="edge5" class="edge">
<title>place_d35ce8acb0d0ca09297349a4e2d4240c2819c523&#45;&gt;place_140e7351379dcf91c8a2461ed5cf53e1b9d1414b</title>
<path fill="none" stroke="#333333" d="M476.12,-72.13C495.13,-65.33 519.07,-56.75 538.86,-49.66"/>
<polygon fill="#333333" stroke="#333333" points="539.68,-51.23 543.79,-47.9 538.5,-47.93 539.68,-51.23"/>
<text text-anchor="middle" x="510" y="-66.8" font-family="Arial" font-size="9.00">cancel</text>
</g>
</g>
</svg>
